<svg width="395" height="122" viewBox="0 0 395 122" fill="none" xmlns="http://www.w3.org/2000/svg">
<path d="M2.91744 116H1.35547L6.98283 100.68H8.88715L14.5787 116H12.9739L11.4762 111.935H4.41522L2.91744 116ZM7.73172 102.841L4.88595 110.587H10.984L8.11686 102.841C8.05267 102.627 7.94569 102.37 7.92429 102.22C7.9029 102.349 7.81731 102.627 7.73172 102.841ZM22.3143 100.68V116H20.7737V100.68H22.3143ZM39.6123 111.036V109.709H45.8174V111.036H39.6123ZM64.6532 100.68V114.588H71.6928V116H63.1127V100.68H64.6532ZM87.2437 116H78.0645V100.68H87.2223V102.092H79.6051V107.612H86.5162V109.003H79.6051V114.588H87.2437V116ZM100.856 101.878C97.3258 101.878 95.1005 104.489 95.1005 108.404C95.1005 112.384 97.4542 114.802 100.899 114.802C103.467 114.802 105.97 113.561 105.97 109.881V109.089H100.428V107.719H107.425V116.021H106.205L106.056 113.582C105.243 115.101 103.317 116.257 100.835 116.257C96.4913 116.257 93.4958 113.133 93.4958 108.404C93.4958 103.718 96.4913 100.423 100.878 100.423C104.109 100.423 106.612 102.263 107.211 105.045H105.542C104.9 102.948 103.103 101.878 100.856 101.878ZM114.55 116H112.988L118.616 100.68H120.52L126.211 116H124.607L123.109 111.935H116.048L114.55 116ZM119.365 102.841L116.519 110.587H122.617L119.75 102.841C119.685 102.627 119.578 102.37 119.557 102.22C119.536 102.349 119.45 102.627 119.365 102.841ZM133.947 100.68V114.588H140.987V116H132.407V100.68H133.947ZM156.438 104.66C156.438 102.092 158.492 100.402 161.573 100.402C164.333 100.402 166.152 101.942 166.387 104.51H164.826C164.654 102.777 163.478 101.793 161.552 101.793C159.391 101.793 157.979 102.905 157.979 104.638C157.979 105.986 158.77 106.842 160.375 107.249L163.007 107.891C165.403 108.468 166.644 109.838 166.644 111.913C166.644 114.566 164.59 116.257 161.423 116.257C158.449 116.257 156.438 114.695 156.245 112.191H157.829C157.914 113.796 159.327 114.845 161.423 114.845C163.67 114.845 165.104 113.753 165.104 111.999C165.104 110.629 164.333 109.731 162.686 109.346L160.097 108.704C157.7 108.126 156.438 106.757 156.438 104.66ZM174.999 116H173.48V100.68H174.999L180.584 114.181L186.168 100.68H187.709V116H186.19V108.725C186.19 106.05 186.233 104.874 186.318 103.825L181.333 116H179.856L174.871 103.889C174.956 104.467 174.999 106.157 174.999 108.49V116ZM195.495 116H193.933L199.56 100.68H201.464L207.156 116H205.551L204.053 111.935H196.992L195.495 116ZM200.309 102.841L197.463 110.587H203.561L200.694 102.841C200.63 102.627 200.523 102.37 200.501 102.22C200.48 102.349 200.394 102.627 200.309 102.841ZM214.891 116H213.351V100.68H219.064C222.166 100.68 224.049 102.392 224.049 105.109C224.049 107.313 222.894 108.853 220.925 109.388L224.199 116H222.487L219.363 109.645H214.891V116ZM214.891 102.071V108.254H219.107C221.225 108.254 222.466 107.099 222.466 105.152C222.466 103.162 221.161 102.071 219.064 102.071H214.891ZM229.289 102.092V100.68H240.265V102.092H235.537V116H233.996V102.092H229.289ZM256.451 116H254.889L260.517 100.68H262.421L268.112 116H266.508L265.01 111.935H257.949L256.451 116ZM261.265 102.841L258.42 110.587H264.518L261.651 102.841C261.586 102.627 261.479 102.37 261.458 102.22C261.437 102.349 261.351 102.627 261.265 102.841ZM273.387 104.66C273.387 102.092 275.441 100.402 278.523 100.402C281.283 100.402 283.102 101.942 283.337 104.51H281.775C281.604 102.777 280.427 101.793 278.501 101.793C276.34 101.793 274.928 102.905 274.928 104.638C274.928 105.986 275.72 106.842 277.324 107.249L279.956 107.891C282.353 108.468 283.594 109.838 283.594 111.913C283.594 114.566 281.54 116.257 278.373 116.257C275.399 116.257 273.387 114.695 273.195 112.191H274.778C274.864 113.796 276.276 114.845 278.373 114.845C280.62 114.845 282.053 113.753 282.053 111.999C282.053 110.629 281.283 109.731 279.635 109.346L277.046 108.704C274.65 108.126 273.387 106.757 273.387 104.66ZM289.551 104.66C289.551 102.092 291.605 100.402 294.686 100.402C297.447 100.402 299.265 101.942 299.501 104.51H297.939C297.768 102.777 296.591 101.793 294.665 101.793C292.504 101.793 291.092 102.905 291.092 104.638C291.092 105.986 291.883 106.842 293.488 107.249L296.12 107.891C298.516 108.468 299.757 109.838 299.757 111.913C299.757 114.566 297.703 116.257 294.537 116.257C291.562 116.257 289.551 114.695 289.359 112.191H290.942C291.028 113.796 292.44 114.845 294.537 114.845C296.783 114.845 298.217 113.753 298.217 111.999C298.217 110.629 297.447 109.731 295.799 109.346L293.21 108.704C290.814 108.126 289.551 106.757 289.551 104.66ZM308.134 100.68V116H306.593V100.68H308.134ZM315.004 104.66C315.004 102.092 317.058 100.402 320.139 100.402C322.9 100.402 324.718 101.942 324.954 104.51H323.392C323.221 102.777 322.044 101.793 320.118 101.793C317.957 101.793 316.545 102.905 316.545 104.638C316.545 105.986 317.336 106.842 318.941 107.249L321.573 107.891C323.969 108.468 325.21 109.838 325.21 111.913C325.21 114.566 323.156 116.257 319.99 116.257C317.015 116.257 315.004 114.695 314.812 112.191H316.395C316.481 113.796 317.893 114.845 319.99 114.845C322.236 114.845 323.67 113.753 323.67 111.999C323.67 110.629 322.9 109.731 321.252 109.346L318.663 108.704C316.267 108.126 315.004 106.757 315.004 104.66ZM330.233 102.092V100.68H341.209V102.092H336.48V116H334.94V102.092H330.233ZM345.995 116H344.433L350.06 100.68H351.965L357.656 116H356.052L354.554 111.935H347.493L345.995 116ZM350.809 102.841L347.964 110.587H354.062L351.195 102.841C351.13 102.627 351.023 102.37 351.002 102.22C350.981 102.349 350.895 102.627 350.809 102.841ZM365.392 116H363.851V100.68H365.413L373.844 113.432V100.68H375.363V116H373.844L365.392 103.248V116ZM381.566 102.092V100.68H392.542V102.092H387.813V116H386.273V102.092H381.566Z" fill="#5F99C3"/>
<path d="M26.5464 65.0727C12.6079 65.0727 2.41406 55.0869 2.41406 41.1484C2.41406 27.2099 12.6079 17.2241 26.5464 17.2241C40.5543 17.2241 50.7481 27.2099 50.7481 41.1484C50.7481 47.6669 48.5291 53.3533 44.715 57.514L48.113 61.4667L41.2477 67.0837L37.5031 62.7843C34.2438 64.2406 30.5685 65.0727 26.5464 65.0727ZM26.5464 56.3351C28.2801 56.3351 29.875 56.0577 31.4006 55.5723L26.3384 49.6086L33.1343 43.9916L38.2659 50.0247C39.7915 47.5282 40.6236 44.477 40.6236 41.1484C40.6236 32.4802 35.076 25.9616 26.5464 25.9616C18.0169 25.9616 12.5386 32.4802 12.5386 41.1484C12.5386 49.7473 18.0169 56.3351 26.5464 56.3351ZM88.0194 64.2406H76.7853L73.9422 56.4045H54.1092L51.1967 64.2406H39.9627L57.8539 17.9869H70.1975L88.0194 64.2406ZM71.2377 47.7362L64.0257 27.834L56.8137 47.7362H71.2377ZM123.288 64.2406H113.787L91.7359 34.0751V64.2406H81.8887V17.9869H92.0132L113.441 47.0428V17.9869H123.288V64.2406ZM248.652 64.2406H239.152L217.1 34.0751V64.2406H207.253V17.9869H217.377L238.805 47.0428V17.9869H248.652V64.2406ZM273.306 51.2035H256.663V43.7142H273.306V51.2035ZM306.439 64.2406H281.336V17.9869H305.677C314.484 17.9869 318.991 23.6039 318.991 29.7757C318.991 35.6007 315.385 39.4841 311.016 40.3856C315.94 41.1484 319.893 45.9333 319.893 51.7583C319.893 58.6929 315.246 64.2406 306.439 64.2406ZM303.527 36.5022C306.856 36.5022 308.936 34.4218 308.936 31.5093C308.936 28.5968 306.856 26.4471 303.527 26.4471H291.183V36.5022H303.527ZM303.874 55.711C307.618 55.711 309.837 53.7 309.837 50.3714C309.837 47.4589 307.757 44.9624 303.874 44.9624H291.183V55.711H303.874ZM378.443 64.2406H368.526V26.6551H355.004V17.9869H391.896V26.6551H378.443V64.2406Z" fill="#5F99C3"/>
<path d="M143.919 65.0727C129.981 65.0727 119.787 55.0869 119.787 41.1484C119.787 27.2099 129.981 17.2241 143.919 17.2241C157.927 17.2241 168.121 27.2099 168.121 41.1484C168.121 55.0869 157.927 65.0727 143.919 65.0727ZM143.919 56.3351C152.449 56.3351 157.997 49.7473 157.997 41.1484C157.997 32.4802 152.449 25.9616 143.919 25.9616C135.39 25.9616 129.911 32.4802 129.911 41.1484C129.911 49.7473 135.39 56.3351 143.919 56.3351ZM186.543 65.0727C172.604 65.0727 162.41 55.0869 162.41 41.1484C162.41 27.2099 172.604 17.2241 186.543 17.2241C200.55 17.2241 210.744 27.2099 210.744 41.1484C210.744 55.0869 200.55 65.0727 186.543 65.0727ZM186.543 56.3351C195.072 56.3351 200.62 49.7473 200.62 41.1484C200.62 32.4802 195.072 25.9616 186.543 25.9616C178.013 25.9616 172.535 32.4802 172.535 41.1484C172.535 49.7473 178.013 56.3351 186.543 56.3351ZM338.83 65.0727C324.891 65.0727 314.698 55.0869 314.698 41.1484C314.698 27.2099 324.891 17.2241 338.83 17.2241C352.838 17.2241 363.032 27.2099 363.032 41.1484C363.032 55.0869 352.838 65.0727 338.83 65.0727ZM338.83 56.3351C347.359 56.3351 352.907 49.7473 352.907 41.1484C352.907 32.4802 347.359 25.9616 338.83 25.9616C330.3 25.9616 324.822 32.4802 324.822 41.1484C324.822 49.7473 330.3 56.3351 338.83 56.3351Z" fill="#615FC3"/>
</svg>
