<svg width="221" height="29" viewBox="0 0 221 29" fill="none" xmlns="http://www.w3.org/2000/svg">
<g clip-path="url(#clip0_1360_524)">
<path d="M14.0495 27.4973C6.16034 27.4973 0.390625 21.8454 0.390625 13.9562C0.390625 6.067 6.16034 0.415039 14.0495 0.415039C21.978 0.415039 27.7477 6.067 27.7477 13.9562C27.7477 17.6456 26.4917 20.8641 24.3329 23.2191L26.2562 25.4563L22.3705 28.6356L20.251 26.2021C18.4062 27.0263 16.326 27.4973 14.0495 27.4973ZM14.0495 22.5519C15.0307 22.5519 15.9335 22.3949 16.797 22.1201L13.9318 18.7446L17.7782 15.5654L20.6827 18.9801C21.5462 17.5671 22.0172 15.8401 22.0172 13.9562C22.0172 9.04998 18.8772 5.36051 14.0495 5.36051C9.22182 5.36051 6.12109 9.04998 6.12109 13.9562C6.12109 18.8231 9.22182 22.5519 14.0495 22.5519ZM48.8432 27.0263H42.4847L40.8755 22.5911H29.6501L28.0016 27.0263H21.6431L31.7695 0.846785H38.756L48.8432 27.0263ZM39.3447 17.6849L35.2628 6.42025L31.1808 17.6849H39.3447ZM68.8053 27.0263H63.4281L50.9467 9.95273V27.0263H45.3732V0.846785H51.1037L63.2319 17.2924V0.846785H68.8053V27.0263ZM139.761 27.0263H134.384L121.903 9.95273V27.0263H116.329V0.846785H122.06L134.188 17.2924V0.846785H139.761V27.0263ZM153.715 19.6474H144.295V15.4084H153.715V19.6474ZM172.469 27.0263H158.26V0.846785H172.037C177.022 0.846785 179.573 4.02602 179.573 7.51925C179.573 10.8162 177.532 13.0142 175.059 13.5244C177.846 13.9562 180.083 16.6644 180.083 19.9614C180.083 23.8863 177.454 27.0263 172.469 27.0263ZM170.82 11.3264C172.704 11.3264 173.882 10.1489 173.882 8.50049C173.882 6.852 172.704 5.63526 170.82 5.63526H163.834V11.3264H170.82ZM171.017 22.1986C173.136 22.1986 174.392 21.0604 174.392 19.1764C174.392 17.5279 173.215 16.1149 171.017 16.1149H163.834V22.1986H171.017ZM213.223 27.0263H207.61V5.75301H199.956V0.846785H220.837V5.75301H213.223V27.0263Z" fill="#5F99C3"/>
<path d="M80.4822 27.4973C72.593 27.4973 66.8232 21.8454 66.8232 13.9562C66.8232 6.067 72.593 0.415039 80.4822 0.415039C88.4106 0.415039 94.1803 6.067 94.1803 13.9562C94.1803 21.8454 88.4106 27.4973 80.4822 27.4973ZM80.4822 22.5519C85.3099 22.5519 88.4498 18.8231 88.4498 13.9562C88.4498 9.04998 85.3099 5.36051 80.4822 5.36051C75.6544 5.36051 72.5537 9.04998 72.5537 13.9562C72.5537 18.8231 75.6544 22.5519 80.4822 22.5519ZM104.607 27.4973C96.7177 27.4973 90.948 21.8454 90.948 13.9562C90.948 6.067 96.7177 0.415039 104.607 0.415039C112.536 0.415039 118.305 6.067 118.305 13.9562C118.305 21.8454 112.536 27.4973 104.607 27.4973ZM104.607 22.5519C109.435 22.5519 112.575 18.8231 112.575 13.9562C112.575 9.04998 109.435 5.36051 104.607 5.36051C99.7792 5.36051 96.6785 9.04998 96.6785 13.9562C96.6785 18.8231 99.7792 22.5519 104.607 22.5519ZM190.802 27.4973C182.913 27.4973 177.143 21.8454 177.143 13.9562C177.143 6.067 182.913 0.415039 190.802 0.415039C198.73 0.415039 204.5 6.067 204.5 13.9562C204.5 21.8454 198.73 27.4973 190.802 27.4973ZM190.802 22.5519C195.63 22.5519 198.77 18.8231 198.77 13.9562C198.77 9.04998 195.63 5.36051 190.802 5.36051C185.974 5.36051 182.873 9.04998 182.873 13.9562C182.873 18.8231 185.974 22.5519 190.802 22.5519Z" fill="#615FC3"/>
</g>
<defs>
<clipPath id="clip0_1360_524">
<rect width="221" height="29" fill="white"/>
</clipPath>
</defs>
</svg>
